<?xml version="1.0" encoding="utf-8"?>
<!-- Generator: Adobe Illustrator 26.1.0, SVG Export Plug-In . SVG Version: 6.00 Build 0)  -->
<svg version="1.1" xmlns="http://www.w3.org/2000/svg" xmlns:xlink="http://www.w3.org/1999/xlink" x="0px" y="0px"
	 viewBox="0 0 160 85" style="enable-background:new 0 0 160 85;" xml:space="preserve">
<style type="text/css">
	.st0{fill:url(#SVGID_1_);stroke:#2C233D;stroke-miterlimit:10;}
	.st1{opacity:0.4;fill:url(#SVGID_00000113312098379202232500000011261165148870248617_);stroke:#2C233D;stroke-miterlimit:10;}
	
		.st2{fill:url(#full_00000130636633584167206740000017719194566839990658_);stroke:url(#full_00000144332794245112132470000015321031645868154266_);stroke-miterlimit:10;}
	.st3{opacity:0;}
	.st4{fill:#2B233D;}
	.st5{fill:#FFFFFF;}
</style>
<g id="Layer_2">
	<linearGradient id="SVGID_1_" gradientUnits="userSpaceOnUse" x1="79.3191" y1="-2.9149" x2="79.3191" y2="111.2573">
		<stop  offset="0" style="stop-color:#2B233D"/>
		<stop  offset="1" style="stop-color:#2B233D"/>
	</linearGradient>
	<rect x="-5.4" y="-2.9" class="st0" width="169.4" height="95.6"/>
	
		<linearGradient id="SVGID_00000052809836542450846430000006488390283074689964_" gradientUnits="userSpaceOnUse" x1="204.5532" y1="100.1064" x2="204.5532" y2="214.2786">
		<stop  offset="0" style="stop-color:#2B233D"/>
		<stop  offset="1" style="stop-color:#2B233D"/>
	</linearGradient>
	
		<rect x="119.9" y="100.1" style="opacity:0.4;fill:url(#SVGID_00000052809836542450846430000006488390283074689964_);stroke:#2C233D;stroke-miterlimit:10;" width="169.4" height="95.6"/>
</g>
<g id="Layer_1">
	
		<linearGradient id="full_00000080206216073541951170000012814413584681640338_" gradientUnits="userSpaceOnUse" x1="80" y1="2" x2="80" y2="71.7">
		<stop  offset="0" style="stop-color:#2B233D"/>
		<stop  offset="6.735361e-02" style="stop-color:#3A334B"/>
		<stop  offset="0.717" style="stop-color:#C7C4CB"/>
		<stop  offset="1" style="stop-color:#FFFFFF"/>
	</linearGradient>
	
		<linearGradient id="full_00000080165115206974922110000013237804579945092018_" gradientUnits="userSpaceOnUse" x1="80" y1="1.5" x2="80" y2="72.2">
		<stop  offset="0" style="stop-color:#2B233D"/>
		<stop  offset="1" style="stop-color:#FFFFFF"/>
	</linearGradient>
	
		<path id="full" style="fill:url(#full_00000080206216073541951170000012814413584681640338_);stroke:url(#full_00000080165115206974922110000013237804579945092018_);stroke-miterlimit:10;" d="
		M87.4,42.3c0-0.8-0.6-1.4-1.4-1.4c-5,0-8.1,1.8-9.9,3.9V25.3c0-0.8-0.6-1.4-1.4-1.4s-1.4,0.6-1.4,1.4v36.8c0,0.8,0.6,1.4,1.4,1.4
		s1.4-0.6,1.4-1.4c0,0,0-4.3,0-9.9c0-8.5,9.9-8.5,9.9-8.5C86.8,43.8,87.4,43.1,87.4,42.3z M69,40.9c-1.3,0-2.4,0.1-3.5,0.3
		c-6.3-0.2-11.4-5.4-11.4-11.7c0-6.4,5.1-11.6,11.5-11.7h1.6l-0.4-1.6c-0.2-0.7-0.2-1.4-0.2-2.1c0-5.2,4.2-9.5,9.5-9.5
		c5.2,0,9.5,4.2,9.5,9.5c0,0.5,0,1-0.1,1.5l0,0c0,0.7,0.6,1.2,1.3,1.2c0.7,0,1.2-0.5,1.3-1.1l0,0c0.1-0.5,0.1-1.1,0.1-1.6
		c0-3.3-1.3-6.3-3.5-8.5S79.4,2,76.1,2C69.4,2,64,7.4,64,14.1c0,0.4,0,0.8,0.1,1.2c-7.1,0.9-12.5,6.9-12.5,14.2
		c0,6.2,4,11.6,9.5,13.5c-4.8,3.3-4.8,9.2-4.8,9.2v9.9c0,0.8,0.6,1.4,1.4,1.4s1.4-0.6,1.4-1.4c0,0,0-4.3,0-9.9
		c0-8.5,9.9-8.5,9.9-8.5c0.8,0,1.4-0.6,1.4-1.4C70.4,41.6,69.8,40.9,69,40.9z M42.9,40.9c-11.3,0-11.3,11.3-11.3,11.3
		s0,11.3,11.3,11.3c3.2,0,5.5-0.9,7.1-2.2l1.7,1.8c0,0,0,0,0.1,0.1l0,0l0,0c0.2,0.2,0.6,0.4,0.9,0.4c0.8,0,1.4-0.6,1.4-1.4
		c0-0.4-0.2-0.7-0.4-1l0,0L52,59.3h-4.1c-2.3,1.5-5,1.5-5,1.5s-8.5,0-8.5-8.5s8.5-8.5,8.5-8.5s8.5,0,8.5,8.5v4.3
		c0,0.8,0.6,1.4,1.4,1.4c0.8,0,1.4-0.6,1.4-1.4v-4.3C54.2,52.3,54.2,40.9,42.9,40.9z M18.2,40.9C6.9,40.9,6.9,52.3,6.9,52.3v13.2
		l-1.6,4C5.1,69.7,5,70,5,70.3c0,0.8,0.6,1.4,1.4,1.4c0.5,0,1-0.3,1.2-0.7l0,0l0,0c0.1-0.1,0.1-0.2,0.1-0.3l1.8-4.4
		c0.1-0.2,0.1-0.4,0.1-0.6V52.3c0-8.5,8.5-8.5,8.5-8.5s8.5,0,8.5,8.5s-8.5,8.5-8.5,8.5H13l0,0c-0.8,0-1.4,0.6-1.4,1.4
		c0,0.8,0.6,1.4,1.4,1.4l0,0l0,0h5.2c11.3,0,11.3-11.3,11.3-11.3S29.6,40.9,18.2,40.9z M143.7,40.9c-3.2,0-5.5,0.9-7.1,2.2l-1.8-1.8
		c0,0,0,0-0.1-0.1l0,0l0,0c-0.2-0.2-0.6-0.4-0.9-0.4c-0.8,0-1.4,0.6-1.4,1.4c0,0.4,0.2,0.7,0.4,1l0,0l1.8,1.9h4.1
		c2.3-1.5,5-1.5,5-1.5s8.5,0,8.5,8.5V62c0,0.8,0.6,1.4,1.4,1.4c0.8,0,1.4-0.6,1.4-1.4v-9.9C155,52.3,155,40.9,143.7,40.9z
		 M128.1,40.9c-0.8,0-1.4,0.6-1.4,1.4v14.2c0,0.8,0.6,1.4,1.4,1.4c0.8,0,1.4-0.6,1.4-1.4V42.3C129.5,41.6,128.9,40.9,128.1,40.9z
		 M133.7,46.6c-0.8,0-1.4,0.6-1.4,1.4v14.2c0,0.8,0.6,1.4,1.4,1.4s1.4-0.6,1.4-1.4V48C135.2,47.2,134.5,46.6,133.7,46.6z
		 M129.1,61.2l-1.8-1.9h-4.1c-2.3,1.5-5,1.5-5,1.5s-8.5,0-8.5-8.5v-9.9c0-0.8-0.6-1.4-1.4-1.4s-1.4,0.6-1.4,1.4v9.9
		c0,0,0,11.3,11.3,11.3c3.2,0,5.5-0.9,7.1-2.2l1.8,1.8c0,0,0,0,0.1,0.1l0,0l0,0c0.2,0.2,0.6,0.4,0.9,0.4c0.8,0,1.4-0.6,1.4-1.4
		C129.5,61.8,129.3,61.5,129.1,61.2L129.1,61.2L129.1,61.2L129.1,61.2z M103,40.9c-12.8,0-12.8,11.3-12.8,11.3V59l-8.7-8.9
		c-0.1-0.1-0.2-0.3-0.4-0.4l0,0c-0.2-0.2-0.5-0.3-0.8-0.3c-0.8,0-1.4,0.6-1.4,1.4c0,0.4,0.1,0.7,0.4,0.9l0,0l0,0c0,0,0,0,0.1,0.1
		l11.1,11.1c0.1,0.2,0.3,0.3,0.4,0.4l0,0l0,0c0.2,0.1,0.5,0.2,0.7,0.2c0.8,0,1.4-0.6,1.4-1.4c0,0,0-4.3,0-9.9c0-8.5,9.9-8.5,9.9-8.5
		c0.8,0,1.4-0.6,1.4-1.4C104.4,41.6,103.8,40.9,103,40.9z"/>
	<g id="mini" class="st3">
		<path id="bg" class="st4" d="M30,32.8c-13.8,0-25,11.2-25,25s11.2,25,25,25s25-11.2,25-25S43.8,32.8,30,32.8L30,32.8z"/>
		<path id="ring" class="st5" d="M30,34.8c12.7,0,23,10.3,23,23s-10.3,23-23,23S7,70.5,7,57.8C7,45.2,17.3,34.8,30,34.8"/>
		<path id="logomini" class="st4" d="M30,53.1c-0.6,0-1.2,0.5-1.2,1.2v17.3c0,0.7,0.5,1.2,1.2,1.2c0.6,0,1.2-0.5,1.2-1.2V67
			c0-1.4,0.7-2.4,2-3c1-0.5,2.1-0.5,2.1-0.5c0.6,0,1.2-0.5,1.2-1.2s-0.5-1.2-1.2-1.2c-1.6,0-3,0.4-4.1,1.2v-8
			C31.2,53.7,30.7,53.1,30,53.1 M30.7,42.9c-3.4,0-6.1,2.8-6.1,6.2v0.1c-3.4,0.7-5.8,3.6-5.8,7.1c0,2.1,0.9,4.1,2.4,5.4
			c0.4,0.3,2.3,1.9,4.9,1.9h0.1h0.1h0.2h0.1c0.5-0.1,0.9-0.6,0.9-1.1c0-0.7-0.5-1.2-1.2-1.2h-0.5c-2.7-0.1-4.7-2.3-4.8-5
			c0-2.7,2.2-4.9,4.8-5h0.7c0.2,0,0.3-0.1,0.4-0.2C27,51,27,50.8,27,50.7L26.8,50c-0.1-0.3-0.1-0.6-0.1-0.9c0-2.2,1.7-3.9,3.9-3.9
			c2.1,0,3.9,1.8,3.9,3.9c0,0.2,0,0.4-0.1,0.6c0,0.1,0,0.2,0,0.3c0.1,0.5,0.6,0.9,1.1,0.9s1-0.4,1.1-0.9v-0.1c0-0.3,0.1-0.6,0.1-0.8
			c0-1.7-0.6-3.2-1.8-4.4C33.8,43.5,32.3,42.9,30.7,42.9"/>
	</g>
</g>
</svg>
